<?xml version="1.0" encoding="UTF-8"?>
<svg id="Capa_2" data-name="Capa 2" xmlns="http://www.w3.org/2000/svg" viewBox="0 0 384.75 384.75">
  <defs>
    <style>
      .cls-1 {
        fill: #315afe;
      }

      .cls-1, .cls-2 {
        stroke-width: 0px;
      }

      .cls-2 {
        fill: #d0e6fe;
      }
    </style>
  </defs>
  <g id="Capa_1-2" data-name="Capa 1">
    <g>
      <path class="cls-1" d="M.75,19.46c.25-.25.61-.45.73-.74C6.75,5.9,13.32,1.49,27.22,1.49c24.73,0,49.45,0,74.18,0,1.12,0,2.28-.12,3.36.12,2.36.53,3.69,2.15,3.61,4.55-.07,2.23-1.4,3.72-3.6,4.19-1.08.23-2.24.12-3.36.12-25.22,0-50.45,0-75.67,0-10.26,0-15.97,5.71-15.98,15.96,0,25.3-.01,50.6,0,75.9,0,2.57,0,5.07-2.9,6.25-2.75,1.12-4.43-.6-6.11-2.3,0-28.94,0-57.89,0-86.83Z"/>
      <path class="cls-1" d="M384.75,106.29c-1.68,1.71-3.36,3.42-6.11,2.31-2.91-1.18-2.91-3.67-2.91-6.25.02-25.3.02-50.59,0-75.89,0-10.25-5.72-15.97-15.96-15.97-25.22,0-50.44,0-75.66,0-1.12,0-2.28.12-3.36-.12-2.36-.52-3.7-2.13-3.63-4.54.06-2.23,1.39-3.73,3.59-4.21,1.08-.23,2.24-.12,3.36-.12,24.97,0,49.94,0,74.92,0,13.53,0,21.04,5.46,25.2,18.3.06.18.36.28.55.42v86.08Z"/>
      <path class="cls-1" d="M.75,279.95c1.68-1.71,3.37-3.42,6.11-2.31,2.91,1.18,2.91,3.68,2.9,6.25-.02,25.3-.02,50.61,0,75.91,0,10.23,5.74,15.95,15.99,15.95,25.35,0,50.71.01,76.06,0,2.58,0,5.08,0,6.26,2.9,1.11,2.74-.6,4.42-2.32,6.1H18.75c-.71-1.23-2.09-1.12-3.18-1.57-6.23-2.6-10.64-7-13.25-13.22-.46-1.09-.35-2.46-1.57-3.17v-86.83Z"/>
      <path class="cls-1" d="M279.75,384.75c-1.71-1.68-3.43-3.35-2.32-6.1,1.18-2.91,3.68-2.9,6.26-2.9,25.35.02,50.7.02,76.06,0,10.25,0,15.99-5.73,15.99-15.96.01-25.3.01-50.61,0-75.91,0-2.57,0-5.07,2.91-6.25,2.75-1.11,4.43.6,6.11,2.31v86.83c-1.93,2.53-2.49,5.75-4.38,8.36-3.65,5-8.82,7.53-14.37,9.61h-86.25Z"/>
      <path class="cls-1" d="M56.32,193.11c0-24.45.06-48.89-.07-73.34-.02-3.71,1.22-5.92,4.46-7.78,42.53-24.4,85.01-48.87,127.43-73.45,3.35-1.94,5.92-1.95,9.28,0,42.21,24.45,84.47,48.79,126.79,73.05,3.53,2.03,5.09,4.36,5.07,8.59-.14,48.64-.13,97.28-.01,145.93,0,3.99-1.28,6.39-4.76,8.39-42.53,24.39-85,48.87-127.43,73.42-3.09,1.79-5.54,1.76-8.63-.03-42.54-24.63-85.12-49.17-127.76-73.64-3.24-1.86-4.45-4.1-4.43-7.8.13-24.45.07-48.89.07-73.34ZM197.26,337.12c1.37-.68,2.15-1.02,2.88-1.44,39.02-22.5,78.02-45.02,117.09-67.44,2.3-1.32,3.01-2.75,3-5.28-.07-44.77-.05-89.53-.07-134.3,0-1.04.32-2.17-.44-3.28-.67.31-1.25.52-1.77.82-39.13,22.54-78.25,45.12-117.42,67.58-2.49,1.43-3.36,2.92-3.35,5.8.11,44.39.07,88.78.07,133.17v4.35ZM65.48,125c-.09,1.13-.15,1.62-.15,2.1,0,45.52.01,91.03-.06,136.55,0,2.21.83,3.29,2.66,4.34,39.27,22.56,78.5,45.18,117.75,67.78.7.4,1.33,1.23,2.45.67.03-.56.1-1.16.1-1.77,0-45.39-.02-90.79.07-136.18,0-2.48-1.17-3.44-3-4.5-29.75-17.1-59.47-34.24-89.2-51.38-10.04-5.78-20.08-11.55-30.63-17.62ZM70.11,117.04c.99.68,1.38.98,1.8,1.22,39.47,22.74,78.96,45.46,118.39,68.27,1.9,1.1,3.21,1.03,5.04-.03,39.01-22.55,78.05-45.04,117.08-67.57.88-.51,2.14-.67,2.43-2.1-.65-.41-1.25-.83-1.89-1.2-39.25-22.63-78.52-45.24-117.73-67.94-1.93-1.12-3.26-.9-5.05.14-30.36,17.56-60.75,35.05-91.14,52.56-9.5,5.47-19.01,10.94-28.93,16.65Z"/>
      <path class="cls-2" d="M197.26,337.12v-4.35c0-44.39.03-88.78-.07-133.17,0-2.88.86-4.38,3.35-5.8,39.18-22.47,78.29-45.04,117.42-67.58.52-.3,1.1-.51,1.77-.82.76,1.11.44,2.24.44,3.28.02,44.77,0,89.53.07,134.3,0,2.53-.7,3.96-3,5.28-39.07,22.41-78.07,44.94-117.09,67.44-.73.42-1.51.76-2.88,1.44Z"/>
      <path class="cls-2" d="M65.48,125c10.55,6.07,20.59,11.84,30.63,17.62,29.73,17.13,59.45,34.28,89.2,51.38,1.83,1.05,3,2.02,3,4.5-.09,45.39-.07,90.78-.07,136.18,0,.61-.07,1.22-.1,1.77-1.12.56-1.75-.27-2.45-.67-39.25-22.59-78.48-45.22-117.75-67.78-1.82-1.05-2.66-2.13-2.66-4.34.07-45.52.05-91.03.06-136.55,0-.49.07-.97.15-2.1Z"/>
      <path class="cls-2" d="M70.11,117.04c9.92-5.71,19.43-11.17,28.93-16.65,30.39-17.51,60.78-35,91.14-52.56,1.79-1.04,3.12-1.25,5.05-.14,39.22,22.69,78.48,45.31,117.73,67.94.64.37,1.25.79,1.89,1.2-.29,1.43-1.55,1.59-2.43,2.1-39.02,22.53-78.07,45.01-117.08,67.57-1.83,1.06-3.14,1.13-5.04.03-39.43-22.8-78.92-45.52-118.39-68.27-.42-.24-.81-.55-1.8-1.22Z"/>
    </g>
  </g>
</svg>